<svg width="9" height="8" viewBox="0 0 9 8" fill="none" xmlns="http://www.w3.org/2000/svg">
<path d="M0.146447 3.32833C-0.0488155 3.52359 -0.0488155 3.84018 0.146447 4.03544L3.32843 7.21742C3.52369 7.41268 3.84027 7.41268 4.03553 7.21742C4.2308 7.02216 4.2308 6.70557 4.03553 6.51031L1.20711 3.68188L4.03553 0.853458C4.2308 0.658195 4.2308 0.341613 4.03553 0.146351C3.84027 -0.0489113 3.52369 -0.0489113 3.32843 0.146351L0.146447 3.32833ZM8.5 4.18188C8.77614 4.18188 9 3.95803 9 3.68188C9 3.40574 8.77614 3.18188 8.5 3.18188V4.18188ZM0.5 4.18188H8.5V3.18188H0.5V4.18188Z" fill="#A6A6A6"/>
</svg>
